<?xml version="1.0" encoding="utf-8"?>
<!-- Generator: Adobe Illustrator 19.1.0, SVG Export Plug-In . SVG Version: 6.00 Build 0)  -->
<svg version="1.1" id="Layer_1" xmlns="http://www.w3.org/2000/svg" xmlns:xlink="http://www.w3.org/1999/xlink" x="0px" y="0px"
	 viewBox="-294 386 22 22" style="enable-background:new -294 386 22 22;" xml:space="preserve">
<style type="text/css">
	.st0{fill:#222222;}
</style>
<g id="grilla">
</g>
<g id="Notas">
</g>
<g id="Layer_4">
</g>
<g>
	<path class="st0" d="M-283,387.5c-5.2,0-9.5,4.3-9.5,9.5c0,5.2,4.3,9.5,9.5,9.5c5.2,0,9.5-4.3,9.5-9.5
		C-273.5,391.8-277.8,387.5-283,387.5z M-283,405c-4.4,0-8-3.6-8-8c0-0.5,0-0.9,0.1-1.3h15.8c0.1,0.4,0.1,0.9,0.1,1.3
		C-275,401.4-278.6,405-283,405z"/>
	<g>
		<g>
			<circle class="st0" cx="-285.7" cy="399" r="1.1"/>
		</g>
		<g>
			<circle class="st0" cx="-280.3" cy="399" r="1.1"/>
		</g>
	</g>
</g>
</svg>
