<svg id="Layer_1" xmlns="http://www.w3.org/2000/svg" viewBox="-294 386 22 22"><style>.st0{fill:#fff}</style><path class="st0" d="M-283 406.5c-5.2 0-9.5-4.2-9.5-9.5 0-5.2 4.2-9.5 9.5-9.5 5.2 0 9.5 4.2 9.5 9.5 0 5.2-4.3 9.5-9.5 9.5zm0-17.5c-4.4 0-8 3.6-8 8s3.6 8 8 8 8-3.6 8-8-3.6-8-8-8z"/><path class="st0" d="M-279.3 398.4h-.9v-2.9h.9c.4 0 .7-.3.7-.7 0-.4-.3-.7-.7-.7h-.9v-.9c0-.4-.3-.7-.7-.7-.4 0-.7.3-.7.7v.9h-2.9v-.9c0-.4-.3-.7-.7-.7-.4 0-.7.3-.7.7v.9h-.9c-.4 0-.7.3-.7.7 0 .4.3.7.7.7h.9v2.9h-.9c-.4 0-.7.3-.7.7 0 .4.3.7.7.7h.9v.9c0 .4.3.7.7.7.4 0 .7-.3.7-.7v-.9h2.9v.9c0 .4.3.7.7.7.4 0 .7-.3.7-.7v-.9h.9c.4 0 .7-.3.7-.7 0-.4-.3-.7-.7-.7zm-5.3 0v-2.9h2.9v2.9h-2.9z"/></svg>