<svg id="Layer_1" xmlns="http://www.w3.org/2000/svg" viewBox="-294 386 22 22"><style>.st0{fill:#fff}</style><path class="st0" d="M-283 406.4c-5.2 0-9.4-4.2-9.4-9.4s4.2-9.4 9.4-9.4 9.4 4.2 9.4 9.4-4.2 9.4-9.4 9.4zm0-17.3c-4.4 0-7.9 3.6-7.9 7.9 0 4.4 3.6 7.9 7.9 7.9 4.4 0 7.9-3.6 7.9-7.9 0-4.4-3.5-7.9-7.9-7.9z"/><path class="st0" d="M-278.6 396c-.2-.4-.6-.5-1-.3l-2.9 1.3v-5c0-.4-.3-.7-.7-.7-.4 0-.7.3-.7.7V398.3c0 .1.1.1.1.2 0 0 .1.1.2.1h.1c.1 0 .2.1.2.1.1 0 .2 0 .3-.1l3.9-1.8c.5 0 .7-.4.5-.8z"/></svg>