<?xml version="1.0" encoding="utf-8"?>
<!-- Generator: Adobe Illustrator 19.1.0, SVG Export Plug-In . SVG Version: 6.00 Build 0)  -->
<svg version="1.1" id="Layer_1" xmlns="http://www.w3.org/2000/svg" xmlns:xlink="http://www.w3.org/1999/xlink" x="0px" y="0px"
	 viewBox="-294 386 22 22" style="enable-background:new -294 386 22 22;" xml:space="preserve">
<style type="text/css">
	.st0{fill:#FFFFFF;}
</style>
<g id="grilla">
</g>
<g id="Notas">
</g>
<g id="Layer_4">
</g>
<g>
	<g>
		<g>
			<path class="st0" d="M-283,406.4c-5.2,0-9.4-4.2-9.4-9.4c0-5.2,4.2-9.4,9.4-9.4c5.2,0,9.4,4.2,9.4,9.4
				C-273.6,402.2-277.8,406.4-283,406.4z M-283,389.1c-4.4,0-7.9,3.6-7.9,7.9c0,4.4,3.6,7.9,7.9,7.9c4.4,0,7.9-3.6,7.9-7.9
				C-275.1,392.6-278.6,389.1-283,389.1z"/>
		</g>
	</g>
	<path class="st0" d="M-278.6,396c-0.2-0.4-0.6-0.5-1-0.3l-2.9,1.3v-5c0-0.4-0.3-0.7-0.7-0.7c-0.4,0-0.7,0.3-0.7,0.7v6.1
		c0,0,0,0,0,0c0,0,0,0.1,0,0.1c0,0,0,0.1,0,0.1c0,0,0,0,0,0c0,0.1,0.1,0.1,0.1,0.2c0,0,0,0,0,0c0,0,0.1,0.1,0.2,0.1c0,0,0,0,0.1,0
		c0.1,0,0.2,0.1,0.2,0.1c0.1,0,0.2,0,0.3-0.1c0,0,0,0,0,0l3.9-1.8C-278.6,396.8-278.4,396.4-278.6,396z"/>
</g>
</svg>
