<svg id="Layer_1" xmlns="http://www.w3.org/2000/svg" viewBox="-294 386 22 22"><style>.st0{fill:#222}</style><path class="st0" d="M-283 406.5c-5.3 0-9.5-4.3-9.5-9.5 0-5.3 4.3-9.5 9.5-9.5 5.3 0 9.5 4.3 9.5 9.5 0 5.3-4.2 9.5-9.5 9.5zm0-17.6c-4.4 0-8.1 3.6-8.1 8.1 0 4.4 3.6 8.1 8.1 8.1 4.4 0 8.1-3.6 8.1-8.1 0-4.4-3.7-8.1-8.1-8.1z"/><path class="st0" d="M-278.8 393.2c-.3-.2-.8-.1-1 .2l-4.1 5.6-2.4-2.4c-.2-.3-.7-.3-1 0-.3.2-.3.7 0 1l2.9 2.9c.1.1.4.4.7.4.4 0 .6-.4.7-.5l4.4-6.1c.2-.4.1-.9-.2-1.1z"/></svg>