<svg id="trash" xmlns="http://www.w3.org/2000/svg" viewBox="0 0 512 512"><style>.st0{display:none}.st1{fill:none;stroke:#1da1f2}.st1,.st2{display:inline}.st3{fill:#444}.st4{fill:#1da1f2}.st5{fill:none;stroke:#000;stroke-width:18;stroke-linejoin:round;stroke-miterlimit:10}.st6,.st7{stroke-linecap:round}.st6{fill:none;stroke:#000;stroke-width:18;stroke-miterlimit:10}.st7{stroke-linejoin:round}.st7,.st8,.st9{fill:none;stroke:#000;stroke-width:18;stroke-miterlimit:10}.st9{stroke:#1a1a1a;stroke-linecap:round;stroke-linejoin:round}.st10{fill:none;stroke:#b35047}.st11,.st12{fill:#1a1a1a}.st12{stroke:#1a1a1a;stroke-linecap:round;stroke-miterlimit:10}.st12,.st13{stroke-width:18;stroke-linejoin:round}.st13,.st14,.st15{fill:none;stroke:#000}.st14{stroke-linecap:round;stroke-linejoin:round;stroke-width:18}.st15{stroke-width:40;stroke-miterlimit:10}</style><path class="st4" d="M442.03 115.81H69.97a9 9 0 0 1 0-18h372.07c4.97 0 9 4.03 9 9s-4.04 9-9.01 9zm0 150.1H69.97a9 9 0 0 1 0-18h372.07c4.97 0 9 4.03 9 9s-4.04 9-9.01 9zm0 150.09H69.97a9 9 0 0 1 0-18h372.07c4.97 0 9 4.03 9 9s-4.04 9-9.01 9z"/></svg>
