<svg id="Layer_1" xmlns="http://www.w3.org/2000/svg" viewBox="-294 386 22 22"><style>.st0{fill:#222}</style><path class="st0" d="M-276.9 402.5c-.3 0-.8-.4-.8-.9 0-.3-.3-.6-.6-.6s-.6.3-.6.6c0 .5-.4.9-.9.9s-.9-.4-.9-.9c0-.3-.3-.6-.6-.6s-.6.3-.6.6c0 .5-.4.9-.9.9s-.9-.4-.9-.9c0-.3-.3-.6-.6-.6h-.1-.1c-.3 0-.6.3-.6.6 0 .5-.4.9-.9.9s-.9-.4-.9-.9c0-.3-.3-.6-.6-.6s-.6.3-.6.6c0 .5-.4.9-.9.9-.3 0-.6.3-.6.6s.3.6.6.6c.5 0 1.1-.3 1.5-.7.4.4 1 .6 1.6.6.7 0 1.1-.2 1.5-.6.4.4 1.2.7 1.8.7s.9-.3 1.3-.7c.4.4 1 .7 1.6.7s1.1-.3 1.5-.7c.4.4.9.7 1.3.7s.7-.2.7-.6c0-.3-.2-.6-.7-.6z"/><path class="st0" d="M-276.8 398.5h-.5v-2.8c0-1.3-1-2.3-2.3-2.3h-2.4v-1.6-.1c.7-.3 1.1-1 1.1-1.8 0-1-1.2-1.9-1.6-2.2l-.4-.3-.4.3c-.4.3-1.6 1.2-1.6 2.2 0 .8.5 1.4 1.1 1.8v1.6h-2.4c-1.3 0-2.3 1-2.3 2.3v3h-.5c-1.3 0-2.3 1-2.3 2.3v3.3c0 1.3 1 2.3 2.3 2.3h12c1.3 0 2.4-1 2.4-2.3v-3.5c0-.9-.9-2.2-2.2-2.2zm-6.1-9.3c.4.3.7.7.7.9 0 .4-.3.7-.7.7-.4 0-.7-.3-.7-.7 0-.3.3-.6.7-.9zm-4.2 6.6c0-.6.5-1.1 1.1-1.1h6.4c.6 0 1.1.5 1.1 1.1v2.8h-8.6v-2.8zm11.3 8.3c0 .6-.5 1.1-1.1 1.1h-12c-.6 0-1.1-.5-1.1-1.1V401c0-.6.5-1.1 1.1-1.1h12c.6 0 1.1.5 1.1 1.1v3.1z"/><circle class="st0" cx="-282.8" cy="396.5" r=".9"/><circle class="st0" cx="-280.1" cy="396.5" r=".9"/><circle class="st0" cx="-285.5" cy="396.5" r=".9"/></svg>