<svg id="Layer_1" xmlns="http://www.w3.org/2000/svg" viewBox="-294 386 22 22"><style>.st0{fill:#222}</style><path class="st0" d="M-275.7 404.9h-9.7v-13.7c0-1.1.9-2.1 2.1-2.1h7.7c1.1 0 2.1.9 2.1 2.1v11.6c-.2 1.2-1.1 2.1-2.2 2.1zm-8.4-1.4h8.4c.4 0 .7-.3.7-.7v-11.6c0-.4-.3-.7-.7-.7h-7.7c-.4 0-.7.3-.7.7v12.3z"/><path class="st0" d="M-283.4 404.9h-7c-1.1 0-2.1-.9-2.1-2.1v-8c0-1.1.9-2.1 2.1-2.1h5.6v1.4h-5.6c-.4 0-.7.3-.7.7v8c0 .4.3.7.7.7h7v1.4zM-282.3 392.3h1.9v1.9h-1.9zM-279 392.3h1.9v1.9h-1.9zM-282.3 396h1.9v1.9h-1.9zM-279 396h1.9v1.9h-1.9zM-282.3 399.6h1.9v1.9h-1.9z"/><path class="st0" d="M-289.2 396h1.9v1.9h-1.9zM-289.2 399.6h1.9v1.9h-1.9zM-279 399.6h1.9v1.9h-1.9z"/></svg>