<?xml version="1.0" encoding="utf-8"?>
<!-- Generator: Adobe Illustrator 19.1.0, SVG Export Plug-In . SVG Version: 6.00 Build 0)  -->
<svg version="1.1" id="Layer_1" xmlns="http://www.w3.org/2000/svg" xmlns:xlink="http://www.w3.org/1999/xlink" x="0px" y="0px"
	 viewBox="-294 386 22 22" style="enable-background:new -294 386 22 22;" xml:space="preserve">
<style type="text/css">
	.st0{fill:#222222;}
</style>
<g id="grilla">
</g>
<g id="Notas">
</g>
<g id="Layer_4">
</g>
<g>
	<g>
		<path class="st0" d="M-283,406.5c-5.3,0-9.5-4.3-9.5-9.5c0-5.3,4.3-9.5,9.5-9.5c5.3,0,9.5,4.3,9.5,9.5
			C-273.5,402.3-277.7,406.5-283,406.5z M-283,388.9c-4.4,0-8.1,3.6-8.1,8.1c0,4.4,3.6,8.1,8.1,8.1c4.4,0,8.1-3.6,8.1-8.1
			C-274.9,392.6-278.6,388.9-283,388.9z"/>
	</g>
	<path class="st0" d="M-278.8,393.2c-0.3-0.2-0.8-0.1-1,0.2l-4.1,5.6l-2.4-2.4c-0.2-0.3-0.7-0.3-1,0c-0.3,0.2-0.3,0.7,0,1l2.9,2.9
		c0.1,0.1,0.4,0.4,0.7,0.4c0.4,0,0.6-0.4,0.7-0.5l4.4-6.1C-278.4,393.9-278.5,393.4-278.8,393.2z"/>
</g>
</svg>
