<?xml version="1.0" encoding="utf-8"?>
<!-- Generator: Adobe Illustrator 19.1.0, SVG Export Plug-In . SVG Version: 6.00 Build 0)  -->
<svg version="1.1" xmlns="http://www.w3.org/2000/svg" xmlns:xlink="http://www.w3.org/1999/xlink" x="0px" y="0px"
	 viewBox="0 0 22 22" style="enable-background:new 0 0 22 22;" xml:space="preserve">
<style type="text/css">
	.st0{fill:#F9F9F9;stroke:#E2E2E2;stroke-miterlimit:10;}
	.st1{fill:#FAFAFA;stroke:#EDEDED;stroke-miterlimit:10;}
	.st2{fill:#1DA1F2;}
	.st3{fill:#43D186;}
	.st4{fill:#ED6F62;}
	.st5{fill:#222222;}
	.st6{fill:#666666;}
	.st7{fill:none;stroke:#888888;stroke-miterlimit:10;}
	.st8{fill:#888888;}
	.st9{fill:#FFFFFF;}
	.st10{fill:none;stroke:#EDEDED;stroke-miterlimit:10;}
	.st11{fill:none;stroke:#FFFFFF;stroke-width:2;stroke-miterlimit:10;}
	.st12{fill:#FAFAFA;}
	.st13{fill:none;stroke:#222222;stroke-miterlimit:10;}
	.st14{fill:#BCBCBC;}
	.st15{fill:#FAFAFA;stroke:#E5E5E5;stroke-miterlimit:10;}
	.st16{opacity:0.35;}
	.st17{opacity:0.8;}
	.st18{fill:none;stroke:#222222;stroke-width:2;stroke-miterlimit:10;}
	.st19{fill:#F4F4F4;}
	.st20{fill:#E1E52E;}
	.st21{fill:#F4C540;}
	.st22{fill:#EF986C;}
	.st23{fill:#FFFFFF;stroke:#E5E5E5;stroke-miterlimit:10;}
	.st24{fill:#EAEAEA;}
	.st25{fill:none;stroke:#1DA1F2;stroke-width:2;stroke-linecap:round;stroke-linejoin:round;stroke-miterlimit:10;}
	.st26{opacity:0.6;fill:#FFFFFF;}
	.st27{fill:#444444;}
</style>
<g id="Layer_1">
	<g>
		<g>
			<g>
				<path class="st5" d="M10.9,16c-0.4,0-0.8-0.3-0.8-0.8V11c0-0.4,0.3-0.8,0.8-0.8s0.8,0.3,0.8,0.8v4.3C11.7,15.7,11.3,16,10.9,16z
					"/>
			</g>
			<g>
				<path class="st5" d="M10.1,12.7c-0.2,0-0.4-0.1-0.5-0.2c-0.3-0.3-0.3-0.7-0.1-1.1l0.6-0.7c0.3-0.3,0.7-0.3,1.1-0.1
					c0.3,0.3,0.3,0.7,0.1,1.1l-0.6,0.7C10.5,12.6,10.3,12.7,10.1,12.7z"/>
			</g>
		</g>
		<path class="st5" d="M20.5,3.4c0-0.4-0.3-0.8-0.8-0.8h-3.6V2.2c0-0.4-0.3-0.8-0.7-0.8s-0.8,0.3-0.8,0.8v0.5H7.3V2.2
			c0-0.4-0.3-0.8-0.8-0.8S5.8,1.8,5.8,2.2v0.5H2.2C1.8,2.7,1.5,3,1.5,3.4V7V18c0,1.4,1.2,2.6,2.6,2.6h13.8c1.4,0,2.6-1.2,2.6-2.6
			L20.5,7c0,0,0,0,0,0c0,0,0,0,0,0V3.4z M3,4.2h2.8v0.9c0,0.4,0.3,0.8,0.8,0.8s0.8-0.3,0.8-0.8V4.2h7.4v0.9c0,0.4,0.3,0.8,0.8,0.8
			s0.7-0.3,0.7-0.8V4.2H19v2.1H3V4.2z M18.9,18c0,0.6-0.5,1.1-1.1,1.1H4C3.4,19,3,18.5,3,18V7.8H19L18.9,18z"/>
	</g>
</g>
<g id="grilla">
</g>
<g id="Notas">
</g>
<g id="Layer_4">
</g>
</svg>
