<?xml version="1.0" encoding="utf-8"?>
<!-- Generator: Adobe Illustrator 19.1.0, SVG Export Plug-In . SVG Version: 6.00 Build 0)  -->
<svg version="1.1" id="Layer_1" xmlns="http://www.w3.org/2000/svg" xmlns:xlink="http://www.w3.org/1999/xlink" x="0px" y="0px"
	 viewBox="-294 386 22 22" style="enable-background:new -294 386 22 22;" xml:space="preserve">
<style type="text/css">
	.st0{fill:#222222;}
</style>
<g id="grilla">
</g>
<g id="Notas">
</g>
<g id="Layer_4">
</g>
<path class="st0" d="M-276.2,389.1h-13.6c-1.5,0-2.8,1.2-2.8,2.8v10.3c0,1.5,1.2,2.8,2.8,2.8h13.6c1.5,0,2.8-1.2,2.8-2.8v-10.3
	C-273.4,390.2-274.7,389.1-276.2,389.1z M-276.2,390.6L-276.2,390.6l-5.9,6c-0.5,0.5-1.3,0.5-1.8,0l-6-6c0,0,0,0,0.1,0H-276.2z
	 M-274.9,402.1c0,0.7-0.6,1.3-1.3,1.3h-13.6c-0.7,0-1.3-0.6-1.3-1.3v-10.3c0-0.1,0-0.2,0-0.2l6.1,6.1c0.5,0.5,1.2,0.8,1.9,0.8
	s1.4-0.3,1.9-0.8l6.3-6.3c0,0.1,0,0.4,0,0.4V402.1L-274.9,402.1z"/>
</svg>
