<?xml version="1.0" encoding="utf-8"?>
<!-- Generator: Adobe Illustrator 19.1.0, SVG Export Plug-In . SVG Version: 6.00 Build 0)  -->
<svg version="1.1" id="Layer_1" xmlns="http://www.w3.org/2000/svg" xmlns:xlink="http://www.w3.org/1999/xlink" x="0px" y="0px"
	 viewBox="-294 386 22 22" style="enable-background:new -294 386 22 22;" xml:space="preserve">
<style type="text/css">
	.st0{fill:#222222;}
</style>
<g id="grilla">
</g>
<g id="Notas">
</g>
<g id="Layer_4">
</g>
<g>
	<g>
		<path class="st0" d="M-275.7,404.9h-9.7v-13.7c0-1.1,0.9-2.1,2.1-2.1h7.7c1.1,0,2.1,0.9,2.1,2.1v11.6
			C-273.7,404-274.6,404.9-275.7,404.9z M-284.1,403.5h8.4c0.4,0,0.7-0.3,0.7-0.7v-11.6c0-0.4-0.3-0.7-0.7-0.7h-7.7
			c-0.4,0-0.7,0.3-0.7,0.7V403.5z"/>
	</g>
	<g>
		<path class="st0" d="M-283.4,404.9h-7c-1.1,0-2.1-0.9-2.1-2.1v-8c0-1.1,0.9-2.1,2.1-2.1h5.6v1.4h-5.6c-0.4,0-0.7,0.3-0.7,0.7v8
			c0,0.4,0.3,0.7,0.7,0.7h7V404.9z"/>
	</g>
	<g>
		<rect x="-282.3" y="392.3" class="st0" width="1.9" height="1.9"/>
	</g>
	<g>
		<rect x="-279" y="392.3" class="st0" width="1.9" height="1.9"/>
	</g>
	<g>
		<rect x="-282.3" y="396" class="st0" width="1.9" height="1.9"/>
	</g>
	<g>
		<rect x="-279" y="396" class="st0" width="1.9" height="1.9"/>
	</g>
	<g>
		<rect x="-282.3" y="399.6" class="st0" width="1.9" height="1.9"/>
	</g>
	<g>
		<rect x="-289.2" y="396" class="st0" width="1.9" height="1.9"/>
	</g>
	<g>
		<rect x="-289.2" y="399.6" class="st0" width="1.9" height="1.9"/>
	</g>
	<g>
		<rect x="-279" y="399.6" class="st0" width="1.9" height="1.9"/>
	</g>
</g>
</svg>
