<svg xmlns="http://www.w3.org/2000/svg" viewBox="0 0 22 22"><style>.st0,.st1{fill:#f9f9f9;stroke:#e2e2e2;stroke-miterlimit:10}.st1{fill:#fafafa;stroke:#ededed}.st2{fill:#1da1f2}.st3{fill:#43d186}.st4{fill:#ed6f62}.st5{fill:#222}.st6{fill:#666}.st7{fill:none;stroke:#888;stroke-miterlimit:10}.st8{fill:#888}.st9{fill:#fff}.st10,.st11{fill:none;stroke:#ededed;stroke-miterlimit:10}.st11{stroke:#fff;stroke-width:2}.st12{fill:#fafafa}.st13{fill:none;stroke:#222;stroke-miterlimit:10}.st14{fill:#bcbcbc}.st15{fill:#fafafa;stroke:#e5e5e5;stroke-miterlimit:10}.st16{opacity:.35}.st17{opacity:.8}.st18{fill:none;stroke:#222;stroke-width:2;stroke-miterlimit:10}.st19{fill:#f4f4f4}.st20{fill:#e1e52e}.st21{fill:#f4c540}.st22{fill:#ef986c}.st23{fill:#fff;stroke:#e5e5e5;stroke-miterlimit:10}.st24{fill:#eaeaea}.st25{fill:none;stroke:#1da1f2;stroke-width:2;stroke-linecap:round;stroke-linejoin:round;stroke-miterlimit:10}.st26{opacity:.6;fill:#fff}.st27{fill:#444}</style><g id="Layer_1"><path class="st5" d="M10.9 16c-.4 0-.8-.3-.8-.8V11c0-.4.3-.8.8-.8s.8.3.8.8v4.3c0 .4-.4.7-.8.7z"/><path class="st5" d="M10.1 12.7c-.2 0-.4-.1-.5-.2-.3-.3-.3-.7-.1-1.1l.6-.7c.3-.3.7-.3 1.1-.1.3.3.3.7.1 1.1l-.6.7c-.2.2-.4.3-.6.3z"/><path class="st5" d="M20.5 3.4c0-.4-.3-.8-.8-.8h-3.6v-.4c0-.4-.3-.8-.7-.8s-.8.3-.8.8v.5H7.3v-.5c0-.4-.3-.8-.8-.8s-.7.4-.7.8v.5H2.2c-.4 0-.7.3-.7.7V18c0 1.4 1.2 2.6 2.6 2.6h13.8c1.4 0 2.6-1.2 2.6-2.6V3.4zM3 4.2h2.8v.9c0 .4.3.8.8.8s.8-.3.8-.8v-.9h7.4v.9c0 .4.3.8.8.8s.7-.3.7-.8v-.9H19v2.1H3V4.2zM18.9 18c0 .6-.5 1.1-1.1 1.1H4c-.6-.1-1-.6-1-1.1V7.8h16L18.9 18z"/></g></svg>