<?xml version="1.0" encoding="utf-8"?>
<!-- Generator: Adobe Illustrator 19.1.0, SVG Export Plug-In . SVG Version: 6.00 Build 0)  -->
<svg version="1.1" id="Layer_1" xmlns="http://www.w3.org/2000/svg" xmlns:xlink="http://www.w3.org/1999/xlink" x="0px" y="0px"
	 viewBox="-294 386 22 22" style="enable-background:new -294 386 22 22;" xml:space="preserve">
<style type="text/css">
	.st0{fill:#1DA1F2;}
</style>
<g id="grilla">
</g>
<g id="Notas">
</g>
<g id="Layer_4">
</g>
<g>
	<g>
		<path class="st0" d="M-276.5,399.7h-3.3v-1h2.8v-10.1h-12v10.1h3.3v1h-3.7c-0.3,0-0.5-0.2-0.5-0.5v-11.1c0-0.3,0.2-0.5,0.5-0.5h13
			c0.3,0,0.5,0.2,0.5,0.5v11.1C-276,399.5-276.3,399.7-276.5,399.7z"/>
	</g>
	<polygon class="st0" points="-279.6,401.6 -282.5,404.5 -282.5,394 -283.5,394 -283.5,404.5 -286.4,401.6 -287,402.3 -283.7,405.7 
		-283.7,405.7 -283,406.4 -282.3,405.7 -279,402.3 	"/>
</g>
</svg>
