<svg id="Layer_1" xmlns="http://www.w3.org/2000/svg" viewBox="-294 382.9 22 27.9"><style>.st0{fill:#222}</style><circle class="st0" cx="-285.6" cy="401.4" r="1.1"/><circle class="st0" cx="-280.2" cy="401.4" r="1.1"/><path class="st0" d="M-275.1 394.2c.5-.9.9-1.9.9-3.1 0-3.3-2.7-6-6-6-3.1 0-5.7 2.4-5.9 5.5-1 .4-1.9.9-2.6 1.5-2.2 1.8-3.5 4.5-3.5 7.3 0 5.2 4.2 9.4 9.4 9.4s9.4-4.2 9.4-9.4c-.1-1.8-.7-3.7-1.7-5.2zm-.5 1.8h-1.2c.3-.2.6-.5.9-.7.1.2.2.5.3.7zm-4.6-9.5c2.6 0 4.7 2.1 4.7 4.7s-2.1 4.7-4.7 4.7-4.7-2.1-4.7-4.7c0-2.7 2.1-4.7 4.7-4.7zm-7.8 6.6c.6-.5 1.2-.8 1.9-1.1.2 1.7 1.2 3.1 2.5 4h-6.6c.5-1.1 1.2-2.1 2.2-2.9zm5.1 14.4c-4.5 0-8.1-3.6-8.1-8.1v-.8h16.1v.8c.1 4.5-3.5 8.1-8 8.1z"/><circle class="st0" cx="-280.2" cy="391.1" r=".9"/></svg>