<svg id="Layer_1" xmlns="http://www.w3.org/2000/svg" viewBox="-289.1 386 12.1 29.6"><style>.st0{fill:#222}</style><path class="st0" d="M-280.1 388h-6c-.6 0-1 .5-1 1.3v.6c0 .5.2.9.6 1v19c0 2.1 1.5 3.8 3.4 3.8s3.4-1.7 3.4-3.8v-19c.4-.2.6-.5.6-1v-.6c.1-.8-.4-1.3-1-1.3zm-.2 1.6c-.3 0-.6.3-.6.7v4h-1.2c-.2 0-.3.2-.3.3 0 .2.2.3.3.3h1.2v1.7h-1.2c-.2 0-.3.2-.3.3 0 .2.2.3.3.3h1.2v1.7h-1.2c-.2 0-.3.2-.3.3 0 .2.2.3.3.3h1.2v1.7h-1.2c-.2 0-.3.2-.3.3 0 .2.2.3.3.3h1.2v1.3h-1.2c-.2 0-.3.2-.3.3 0 .2.2.3.3.3h1.2v6c0 1.4-1 2.5-2.2 2.5s-2.2-1.2-2.2-2.5v-19.6c0-.4-.3-.7-.6-.7v-.3h5.6v.5z"/></svg>