<?xml version="1.0" encoding="utf-8"?>
<!-- Generator: Adobe Illustrator 19.1.0, SVG Export Plug-In . SVG Version: 6.00 Build 0)  -->
<svg version="1.1" id="Layer_1" xmlns="http://www.w3.org/2000/svg" xmlns:xlink="http://www.w3.org/1999/xlink" x="0px" y="0px"
	 viewBox="-289.1 386 12.1 29.6" style="enable-background:new -289.1 386 12.1 29.6;" xml:space="preserve">
<style type="text/css">
	.st0{fill:#222222;}
</style>
<g id="grilla">
</g>
<g id="Notas">
</g>
<g id="Layer_4">
</g>
<g>
	<g>
		<g>
			<path class="st0" d="M-280.1,388h-6c-0.6,0-1,0.5-1,1.3v0.6c0,0.5,0.2,0.9,0.6,1v19c0,2.1,1.5,3.8,3.4,3.8s3.4-1.7,3.4-3.8v-19
				c0.4-0.2,0.6-0.5,0.6-1v-0.6C-279,388.5-279.5,388-280.1,388z M-280.3,389.6c-0.3,0-0.6,0.3-0.6,0.7v4h-1.2
				c-0.2,0-0.3,0.2-0.3,0.3c0,0.2,0.2,0.3,0.3,0.3h1.2v1.7h-1.2c-0.2,0-0.3,0.2-0.3,0.3c0,0.2,0.2,0.3,0.3,0.3h1.2v1.7h-1.2
				c-0.2,0-0.3,0.2-0.3,0.3c0,0.2,0.2,0.3,0.3,0.3h1.2v1.7h-1.2c-0.2,0-0.3,0.2-0.3,0.3c0,0.2,0.2,0.3,0.3,0.3h1.2v1.3h-1.2
				c-0.2,0-0.3,0.2-0.3,0.3c0,0.2,0.2,0.3,0.3,0.3h1.2v6c0,1.4-1,2.5-2.2,2.5s-2.2-1.2-2.2-2.5v-19.6c0-0.4-0.3-0.7-0.6-0.7v-0.3
				h5.6V389.6z"/>
		</g>
	</g>
</g>
</svg>
