<svg id="trash" xmlns="http://www.w3.org/2000/svg" viewBox="0 0 512 512"><style>.st0{display:none}.st1{fill:none;stroke:white}.st1,.st2{display:inline}.st3{fill:#444}.st4{fill:white}.st5{fill:none;stroke:#000;stroke-width:18;stroke-linejoin:round;stroke-miterlimit:10}.st6,.st7{stroke-linecap:round}.st6{fill:none;stroke:#000;stroke-width:18;stroke-miterlimit:10}.st7{stroke-linejoin:round}.st7,.st8,.st9{fill:none;stroke:#000;stroke-width:18;stroke-miterlimit:10}.st9{stroke:#1a1a1a;stroke-linecap:round;stroke-linejoin:round}.st10{fill:none;stroke:#b35047}.st11,.st12{fill:#1a1a1a}.st12{stroke:#1a1a1a;stroke-linecap:round;stroke-miterlimit:10}.st12,.st13{stroke-width:18;stroke-linejoin:round}.st13,.st14,.st15{fill:none;stroke:#000}.st14{stroke-linecap:round;stroke-linejoin:round;stroke-width:18}.st15{stroke-width:40;stroke-miterlimit:10}</style><path class="st4" d="M267.62 257.04l177.6-177.6c3.52-3.51 3.52-9.21 0-12.73-3.51-3.51-9.21-3.51-12.73 0l-177.6 177.6-177.6-177.6c-3.51-3.51-9.21-3.51-12.73 0-3.52 3.51-3.52 9.21 0 12.73l177.6 177.6-177.6 177.6c-3.52 3.51-3.52 9.21 0 12.73 1.76 1.76 4.06 2.64 6.36 2.64s4.61-.88 6.36-2.64l177.6-177.6 177.6 177.6c1.76 1.76 4.06 2.64 6.36 2.64s4.61-.88 6.36-2.64c3.52-3.51 3.52-9.21 0-12.73l-177.58-177.6z"/></svg>