<?xml version="1.0" encoding="utf-8"?>
<!-- Generator: Adobe Illustrator 19.1.0, SVG Export Plug-In . SVG Version: 6.00 Build 0)  -->
<svg version="1.1" id="Layer_1" xmlns="http://www.w3.org/2000/svg" xmlns:xlink="http://www.w3.org/1999/xlink" x="0px" y="0px"
	 viewBox="-294 386 22 22" style="enable-background:new -294 386 22 22;" xml:space="preserve">
<style type="text/css">
	.st0{fill:#222222;}
</style>
<g id="grilla">
</g>
<g id="Notas">
</g>
<g id="Layer_4">
</g>
<g>
	<path class="st0" d="M-276.9,402.5c-0.3,0-0.8-0.4-0.8-0.9c0-0.3-0.3-0.6-0.6-0.6l0,0l0,0c-0.3,0-0.6,0.3-0.6,0.6
		c0,0.5-0.4,0.9-0.9,0.9s-0.9-0.4-0.9-0.9c0-0.3-0.3-0.6-0.6-0.6s-0.6,0.3-0.6,0.6c0,0.5-0.4,0.9-0.9,0.9s-0.9-0.4-0.9-0.9
		c0-0.3-0.3-0.6-0.6-0.6c0,0,0,0-0.1,0c0,0,0,0-0.1,0c-0.3,0-0.6,0.3-0.6,0.6c0,0.5-0.4,0.9-0.9,0.9s-0.9-0.4-0.9-0.9
		c0-0.3-0.3-0.6-0.6-0.6c-0.3,0-0.6,0.3-0.6,0.6c0,0.5-0.4,0.9-0.9,0.9c-0.3,0-0.6,0.3-0.6,0.6c0,0.3,0.3,0.6,0.6,0.6
		c0.5,0,1.1-0.3,1.5-0.7c0.4,0.4,1,0.6,1.6,0.6c0.7,0,1.1-0.2,1.5-0.6c0.4,0.4,1.2,0.7,1.8,0.7s0.9-0.3,1.3-0.7
		c0.4,0.4,1,0.7,1.6,0.7s1.1-0.3,1.5-0.7c0.4,0.4,0.9,0.7,1.3,0.7c0.4,0,0.7-0.2,0.7-0.6C-276.2,402.8-276.4,402.5-276.9,402.5z"/>
	<path class="st0" d="M-276.8,398.5h-0.5v-2.8c0-1.3-1-2.3-2.3-2.3h-2.4c0,0,0,0,0-0.1v-1.5c0,0,0,0,0-0.1c0.7-0.3,1.1-1,1.1-1.8
		c0-1-1.2-1.9-1.6-2.2l-0.4-0.3l-0.4,0.3c-0.4,0.3-1.6,1.2-1.6,2.2c0,0.8,0.5,1.4,1.1,1.8l0,0v1.5c0,0,0,0,0,0.1h-2.4
		c-1.3,0-2.3,1-2.3,2.3v3h-0.5c-1.3,0-2.3,1-2.3,2.3v3.3c0,1.3,1,2.3,2.3,2.3h12c1.3,0,2.4-1,2.4-2.3v-3.5
		C-274.6,399.8-275.5,398.5-276.8,398.5z M-282.9,389.2c0.4,0.3,0.7,0.7,0.7,0.9c0,0.4-0.3,0.7-0.7,0.7c-0.4,0-0.7-0.3-0.7-0.7
		C-283.6,389.8-283.3,389.5-282.9,389.2z M-287.1,395.8c0-0.6,0.5-1.1,1.1-1.1h6.4c0.6,0,1.1,0.5,1.1,1.1v2.8h-8.6V395.8z
		 M-275.8,404.1c0,0.6-0.5,1.1-1.1,1.1h-12c-0.6,0-1.1-0.5-1.1-1.1V401c0-0.6,0.5-1.1,1.1-1.1h12c0.6,0,1.1,0.5,1.1,1.1V404.1z"/>
	<g>
		<g>
			<g>
				<circle class="st0" cx="-282.8" cy="396.5" r="0.9"/>
			</g>
		</g>
		<g>
			<g>
				<circle class="st0" cx="-280.1" cy="396.5" r="0.9"/>
			</g>
		</g>
		<g>
			<g>
				<circle class="st0" cx="-285.5" cy="396.5" r="0.9"/>
			</g>
		</g>
	</g>
</g>
</svg>
